<mxfile host="app.diagrams.net" modified="2023-09-25T08:27:18.576Z" agent="Mozilla/5.0 (Windows NT 10.0; Win64; x64) AppleWebKit/537.36 (KHTML, like Gecko) Chrome/116.0.0.0 Safari/537.36" etag="DEaNAmQh_UXHn81QFQjk" version="21.8.2" type="github">
  <diagram name="Page-1" id="efa7a0a1-bf9b-a30e-e6df-94a7791c09e9">
    <mxGraphModel dx="633" dy="1139" grid="1" gridSize="10" guides="1" tooltips="1" connect="1" arrows="1" fold="1" page="1" pageScale="1" pageWidth="3300" pageHeight="4681" background="none" math="0" shadow="0">
      <root>
        <mxCell id="0" />
        <mxCell id="1" parent="0" />
        <mxCell id="13j3pOSbm1yzFYjL6CGB-115" value="" style="swimlane;startSize=0;" vertex="1" parent="1">
          <mxGeometry x="590" y="250" width="600" height="290" as="geometry" />
        </mxCell>
        <mxCell id="13j3pOSbm1yzFYjL6CGB-117" value="&lt;font style=&quot;font-size: 24px;&quot;&gt;&lt;b&gt;eBPF子系统&lt;/b&gt;&lt;/font&gt;" style="text;html=1;align=center;verticalAlign=middle;resizable=0;points=[];autosize=1;strokeColor=none;fillColor=none;" vertex="1" parent="13j3pOSbm1yzFYjL6CGB-115">
          <mxGeometry x="270" width="160" height="40" as="geometry" />
        </mxCell>
        <mxCell id="13j3pOSbm1yzFYjL6CGB-114" value="&lt;font style=&quot;font-size: 26px;&quot;&gt;Tracepoint&lt;/font&gt;" style="verticalAlign=top;align=left;spacingTop=8;spacingLeft=2;spacingRight=12;shape=cube;size=10;direction=south;fontStyle=4;html=1;whiteSpace=wrap;" vertex="1" parent="13j3pOSbm1yzFYjL6CGB-115">
          <mxGeometry x="170" y="70" width="180" height="120" as="geometry" />
        </mxCell>
        <mxCell id="13j3pOSbm1yzFYjL6CGB-119" value="" style="shape=curlyBracket;whiteSpace=wrap;html=1;rounded=1;flipH=1;labelPosition=right;verticalLabelPosition=middle;align=left;verticalAlign=middle;" vertex="1" parent="13j3pOSbm1yzFYjL6CGB-115">
          <mxGeometry x="100" y="45" width="70" height="190" as="geometry" />
        </mxCell>
        <mxCell id="13j3pOSbm1yzFYjL6CGB-120" value="Memory" style="shape=ext;double=1;rounded=0;whiteSpace=wrap;html=1;" vertex="1" parent="13j3pOSbm1yzFYjL6CGB-115">
          <mxGeometry x="10" y="40" width="90" height="30" as="geometry" />
        </mxCell>
        <mxCell id="13j3pOSbm1yzFYjL6CGB-121" value="Schedule" style="shape=ext;double=1;rounded=0;whiteSpace=wrap;html=1;" vertex="1" parent="13j3pOSbm1yzFYjL6CGB-115">
          <mxGeometry x="10" y="80" width="90" height="30" as="geometry" />
        </mxCell>
        <mxCell id="13j3pOSbm1yzFYjL6CGB-122" value="BlockIO" style="shape=ext;double=1;rounded=0;whiteSpace=wrap;html=1;" vertex="1" parent="13j3pOSbm1yzFYjL6CGB-115">
          <mxGeometry x="10" y="125" width="90" height="30" as="geometry" />
        </mxCell>
        <mxCell id="13j3pOSbm1yzFYjL6CGB-123" value="&lt;font style=&quot;font-size: 11px;&quot;&gt;Filesystem(Ext4)&lt;/font&gt;" style="shape=ext;double=1;rounded=0;whiteSpace=wrap;html=1;" vertex="1" parent="13j3pOSbm1yzFYjL6CGB-115">
          <mxGeometry x="10" y="170" width="90" height="30" as="geometry" />
        </mxCell>
        <mxCell id="13j3pOSbm1yzFYjL6CGB-124" value="OOM" style="shape=ext;double=1;rounded=0;whiteSpace=wrap;html=1;" vertex="1" parent="13j3pOSbm1yzFYjL6CGB-115">
          <mxGeometry x="10" y="220" width="90" height="30" as="geometry" />
        </mxCell>
        <mxCell id="13j3pOSbm1yzFYjL6CGB-125" value="选点" style="text;strokeColor=none;fillColor=none;html=1;fontSize=24;fontStyle=1;verticalAlign=middle;align=center;" vertex="1" parent="13j3pOSbm1yzFYjL6CGB-115">
          <mxGeometry x="170" y="125" width="100" height="40" as="geometry" />
        </mxCell>
        <mxCell id="13j3pOSbm1yzFYjL6CGB-153" value="&lt;font style=&quot;font-size: 14px;&quot;&gt;/sys/kernel/debug/tracing/&lt;br&gt;trace_pipe输出数据&lt;/font&gt;" style="shape=module;align=left;spacingLeft=20;align=center;verticalAlign=top;whiteSpace=wrap;html=1;" vertex="1" parent="13j3pOSbm1yzFYjL6CGB-115">
          <mxGeometry x="350" y="125" width="200" height="50" as="geometry" />
        </mxCell>
        <mxCell id="13j3pOSbm1yzFYjL6CGB-118" value="&lt;font size=&quot;1&quot; style=&quot;&quot;&gt;&lt;b style=&quot;font-size: 17px;&quot;&gt;格式处理&lt;/b&gt;&lt;/font&gt;" style="endArrow=block;endSize=16;endFill=0;html=1;rounded=0;exitX=1;exitY=0.5;exitDx=0;exitDy=0;" edge="1" parent="1">
          <mxGeometry y="-1" width="160" relative="1" as="geometry">
            <mxPoint x="1142.5" y="395.21" as="sourcePoint" />
            <mxPoint x="1312.5" y="394.5" as="targetPoint" />
            <mxPoint as="offset" />
          </mxGeometry>
        </mxCell>
        <mxCell id="13j3pOSbm1yzFYjL6CGB-128" value="" style="swimlane;startSize=0;fillColor=none;" vertex="1" parent="1">
          <mxGeometry x="585" y="590" width="610" height="310" as="geometry" />
        </mxCell>
        <mxCell id="13j3pOSbm1yzFYjL6CGB-129" value="&lt;span style=&quot;font-size: 24px;&quot;&gt;&lt;b&gt;XGBoost机器学习框架&lt;/b&gt;&lt;/span&gt;" style="text;html=1;align=center;verticalAlign=middle;resizable=0;points=[];autosize=1;strokeColor=none;fillColor=none;" vertex="1" parent="13j3pOSbm1yzFYjL6CGB-128">
          <mxGeometry x="-5" width="270" height="40" as="geometry" />
        </mxCell>
        <mxCell id="13j3pOSbm1yzFYjL6CGB-151" value="&lt;font style=&quot;&quot;&gt;&lt;span style=&quot;font-size: 23px;&quot;&gt;训练&lt;/span&gt;&lt;br&gt;&lt;br&gt;&lt;span style=&quot;font-size: 23px;&quot;&gt;train_data.py&lt;/span&gt;&lt;br&gt;&lt;font style=&quot;font-size: 19px;&quot;&gt;(70%train,30%test)&lt;/font&gt;&lt;br&gt;&lt;/font&gt;" style="verticalAlign=top;align=left;spacingTop=8;spacingLeft=2;spacingRight=12;shape=cube;size=10;direction=south;fontStyle=4;html=1;whiteSpace=wrap;" vertex="1" parent="13j3pOSbm1yzFYjL6CGB-128">
          <mxGeometry x="15" y="100" width="180" height="120" as="geometry" />
        </mxCell>
        <mxCell id="13j3pOSbm1yzFYjL6CGB-152" value="&lt;font style=&quot;font-size: 23px;&quot;&gt;推理&lt;br&gt;&lt;br&gt;predict.c&lt;br&gt;&lt;/font&gt;" style="verticalAlign=top;align=left;spacingTop=8;spacingLeft=2;spacingRight=12;shape=cube;size=10;direction=south;fontStyle=4;html=1;whiteSpace=wrap;" vertex="1" parent="13j3pOSbm1yzFYjL6CGB-128">
          <mxGeometry x="395" y="30" width="180" height="120" as="geometry" />
        </mxCell>
        <mxCell id="13j3pOSbm1yzFYjL6CGB-163" value="&lt;b&gt;&lt;font style=&quot;font-size: 15px;&quot;&gt;model.bin&lt;/font&gt;&lt;/b&gt;" style="shape=note;whiteSpace=wrap;html=1;backgroundOutline=1;darkOpacity=0.05;" vertex="1" parent="13j3pOSbm1yzFYjL6CGB-128">
          <mxGeometry x="255" y="50" width="80" height="100" as="geometry" />
        </mxCell>
        <mxCell id="13j3pOSbm1yzFYjL6CGB-165" style="edgeStyle=orthogonalEdgeStyle;rounded=0;orthogonalLoop=1;jettySize=auto;html=1;entryX=0;entryY=0.5;entryDx=0;entryDy=0;entryPerimeter=0;" edge="1" parent="13j3pOSbm1yzFYjL6CGB-128" source="13j3pOSbm1yzFYjL6CGB-151" target="13j3pOSbm1yzFYjL6CGB-163">
          <mxGeometry relative="1" as="geometry" />
        </mxCell>
        <mxCell id="13j3pOSbm1yzFYjL6CGB-169" style="edgeStyle=orthogonalEdgeStyle;rounded=0;orthogonalLoop=1;jettySize=auto;html=1;entryX=0;entryY=0;entryDx=65;entryDy=180;entryPerimeter=0;" edge="1" parent="13j3pOSbm1yzFYjL6CGB-128" source="13j3pOSbm1yzFYjL6CGB-163" target="13j3pOSbm1yzFYjL6CGB-152">
          <mxGeometry relative="1" as="geometry" />
        </mxCell>
        <mxCell id="13j3pOSbm1yzFYjL6CGB-180" value="" style="shape=ext;double=1;rounded=0;whiteSpace=wrap;html=1;fillColor=none;" vertex="1" parent="13j3pOSbm1yzFYjL6CGB-128">
          <mxGeometry x="5" y="40" width="235" height="240" as="geometry" />
        </mxCell>
        <mxCell id="13j3pOSbm1yzFYjL6CGB-181" value="&lt;font style=&quot;font-size: 21px;&quot;&gt;python-venv&lt;/font&gt;" style="text;strokeColor=none;fillColor=none;html=1;fontSize=24;fontStyle=1;verticalAlign=middle;align=center;" vertex="1" parent="13j3pOSbm1yzFYjL6CGB-128">
          <mxGeometry x="125" y="240" width="100" height="40" as="geometry" />
        </mxCell>
        <mxCell id="13j3pOSbm1yzFYjL6CGB-183" value="&lt;span style=&quot;font-size: 21px;&quot;&gt;C API(libxgboost)&lt;/span&gt;" style="text;strokeColor=none;fillColor=none;html=1;fontSize=24;fontStyle=1;verticalAlign=middle;align=center;" vertex="1" parent="13j3pOSbm1yzFYjL6CGB-128">
          <mxGeometry x="395" y="240" width="100" height="40" as="geometry" />
        </mxCell>
        <mxCell id="13j3pOSbm1yzFYjL6CGB-182" value="" style="shape=ext;double=1;rounded=0;whiteSpace=wrap;html=1;fillColor=none;" vertex="1" parent="13j3pOSbm1yzFYjL6CGB-128">
          <mxGeometry x="345" y="20" width="240" height="270" as="geometry" />
        </mxCell>
        <mxCell id="13j3pOSbm1yzFYjL6CGB-188" style="edgeStyle=orthogonalEdgeStyle;rounded=0;orthogonalLoop=1;jettySize=auto;html=1;entryX=0;entryY=0.5;entryDx=0;entryDy=0;" edge="1" parent="1" source="13j3pOSbm1yzFYjL6CGB-138" target="13j3pOSbm1yzFYjL6CGB-187">
          <mxGeometry relative="1" as="geometry" />
        </mxCell>
        <mxCell id="13j3pOSbm1yzFYjL6CGB-138" value="&lt;p style=&quot;margin: 4px 0px 0px; text-align: center; font-size: 17px;&quot;&gt;&lt;b style=&quot;&quot;&gt;&lt;font style=&quot;font-size: 17px;&quot;&gt;Raw2csv&lt;/font&gt;&lt;/b&gt;&lt;/p&gt;&lt;hr style=&quot;font-size: 17px;&quot; size=&quot;1&quot;&gt;&lt;div style=&quot;height: 2px; font-size: 17px;&quot;&gt;&lt;font style=&quot;font-size: 17px;&quot;&gt;将trace_pipe输出转换为csv格式&lt;/font&gt;&lt;/div&gt;" style="verticalAlign=top;align=left;overflow=fill;fontSize=12;fontFamily=Helvetica;html=1;whiteSpace=wrap;" vertex="1" parent="1">
          <mxGeometry x="1312.5" y="370" width="210" height="80" as="geometry" />
        </mxCell>
        <mxCell id="13j3pOSbm1yzFYjL6CGB-149" value="&lt;p style=&quot;margin: 4px 0px 0px; text-align: center; font-size: 17px;&quot;&gt;&lt;b style=&quot;&quot;&gt;&lt;font style=&quot;font-size: 17px;&quot;&gt;Csv2coding&lt;/font&gt;&lt;/b&gt;&lt;/p&gt;&lt;hr style=&quot;font-size: 17px;&quot; size=&quot;1&quot;&gt;&lt;div style=&quot;height: 2px; font-size: 17px;&quot;&gt;&lt;font style=&quot;font-size: 17px;&quot;&gt;将原始csv格式数据进行编码&lt;/font&gt;&lt;/div&gt;" style="verticalAlign=top;align=left;overflow=fill;fontSize=12;fontFamily=Helvetica;html=1;whiteSpace=wrap;" vertex="1" parent="1">
          <mxGeometry x="1307.5" y="550" width="215" height="90" as="geometry" />
        </mxCell>
        <mxCell id="13j3pOSbm1yzFYjL6CGB-156" value="&lt;b&gt;&lt;font style=&quot;font-size: 14px;&quot;&gt;output_data&lt;br&gt;.csv&lt;/font&gt;&lt;/b&gt;" style="shape=note;whiteSpace=wrap;html=1;backgroundOutline=1;darkOpacity=0.05;" vertex="1" parent="1">
          <mxGeometry x="1370" y="680" width="90" height="100" as="geometry" />
        </mxCell>
        <mxCell id="13j3pOSbm1yzFYjL6CGB-157" style="edgeStyle=orthogonalEdgeStyle;rounded=0;orthogonalLoop=1;jettySize=auto;html=1;entryX=0.5;entryY=0;entryDx=0;entryDy=0;entryPerimeter=0;" edge="1" parent="1" source="13j3pOSbm1yzFYjL6CGB-149" target="13j3pOSbm1yzFYjL6CGB-156">
          <mxGeometry relative="1" as="geometry" />
        </mxCell>
        <mxCell id="13j3pOSbm1yzFYjL6CGB-170" style="edgeStyle=orthogonalEdgeStyle;rounded=0;orthogonalLoop=1;jettySize=auto;html=1;entryX=0;entryY=0;entryDx=55;entryDy=0;entryPerimeter=0;" edge="1" parent="1" source="13j3pOSbm1yzFYjL6CGB-156" target="13j3pOSbm1yzFYjL6CGB-152">
          <mxGeometry relative="1" as="geometry" />
        </mxCell>
        <mxCell id="13j3pOSbm1yzFYjL6CGB-172" value="&lt;b&gt;&lt;font style=&quot;font-size: 20px;&quot;&gt;当前系统状态&lt;/font&gt;&lt;/b&gt;" style="swimlane;fontStyle=0;childLayout=stackLayout;horizontal=1;startSize=26;fillColor=none;horizontalStack=0;resizeParent=1;resizeParentMax=0;resizeLast=0;collapsible=1;marginBottom=0;whiteSpace=wrap;html=1;" vertex="1" parent="1">
          <mxGeometry x="920" y="960" width="290" height="190" as="geometry">
            <mxRectangle x="960" y="1040" width="160" height="40" as="alternateBounds" />
          </mxGeometry>
        </mxCell>
        <mxCell id="13j3pOSbm1yzFYjL6CGB-173" value="+ 0: 正常负载状态" style="text;strokeColor=none;fillColor=none;align=left;verticalAlign=top;spacingLeft=4;spacingRight=4;overflow=hidden;rotatable=0;points=[[0,0.5],[1,0.5]];portConstraint=eastwest;whiteSpace=wrap;html=1;" vertex="1" parent="13j3pOSbm1yzFYjL6CGB-172">
          <mxGeometry y="26" width="290" height="26" as="geometry" />
        </mxCell>
        <mxCell id="13j3pOSbm1yzFYjL6CGB-174" value="+ 1: 高CPU(Schedule)负载" style="text;strokeColor=none;fillColor=none;align=left;verticalAlign=top;spacingLeft=4;spacingRight=4;overflow=hidden;rotatable=0;points=[[0,0.5],[1,0.5]];portConstraint=eastwest;whiteSpace=wrap;html=1;" vertex="1" parent="13j3pOSbm1yzFYjL6CGB-172">
          <mxGeometry y="52" width="290" height="26" as="geometry" />
        </mxCell>
        <mxCell id="13j3pOSbm1yzFYjL6CGB-176" value="+ 2: 高Memory负载" style="text;strokeColor=none;fillColor=none;align=left;verticalAlign=top;spacingLeft=4;spacingRight=4;overflow=hidden;rotatable=0;points=[[0,0.5],[1,0.5]];portConstraint=eastwest;whiteSpace=wrap;html=1;" vertex="1" parent="13j3pOSbm1yzFYjL6CGB-172">
          <mxGeometry y="78" width="290" height="26" as="geometry" />
        </mxCell>
        <mxCell id="13j3pOSbm1yzFYjL6CGB-178" value="+ 3: 高Block-IO负载" style="text;strokeColor=none;fillColor=none;align=left;verticalAlign=top;spacingLeft=4;spacingRight=4;overflow=hidden;rotatable=0;points=[[0,0.5],[1,0.5]];portConstraint=eastwest;whiteSpace=wrap;html=1;" vertex="1" parent="13j3pOSbm1yzFYjL6CGB-172">
          <mxGeometry y="104" width="290" height="26" as="geometry" />
        </mxCell>
        <mxCell id="13j3pOSbm1yzFYjL6CGB-179" value="+ 4: 高Filesystem（ext4）负载" style="text;strokeColor=none;fillColor=none;align=left;verticalAlign=top;spacingLeft=4;spacingRight=4;overflow=hidden;rotatable=0;points=[[0,0.5],[1,0.5]];portConstraint=eastwest;whiteSpace=wrap;html=1;" vertex="1" parent="13j3pOSbm1yzFYjL6CGB-172">
          <mxGeometry y="130" width="290" height="26" as="geometry" />
        </mxCell>
        <mxCell id="13j3pOSbm1yzFYjL6CGB-175" value="+ 5: 高OOM（Memory Leak）负载" style="text;strokeColor=none;fillColor=none;align=left;verticalAlign=top;spacingLeft=4;spacingRight=4;overflow=hidden;rotatable=0;points=[[0,0.5],[1,0.5]];portConstraint=eastwest;whiteSpace=wrap;html=1;" vertex="1" parent="13j3pOSbm1yzFYjL6CGB-172">
          <mxGeometry y="156" width="290" height="34" as="geometry" />
        </mxCell>
        <mxCell id="13j3pOSbm1yzFYjL6CGB-185" style="edgeStyle=orthogonalEdgeStyle;rounded=0;orthogonalLoop=1;jettySize=auto;html=1;entryX=0;entryY=0;entryDx=120;entryDy=95;entryPerimeter=0;" edge="1" parent="1" source="13j3pOSbm1yzFYjL6CGB-172" target="13j3pOSbm1yzFYjL6CGB-152">
          <mxGeometry relative="1" as="geometry" />
        </mxCell>
        <mxCell id="13j3pOSbm1yzFYjL6CGB-187" value="&lt;b&gt;&lt;font style=&quot;font-size: 17px;&quot;&gt;训练or推理&lt;/font&gt;&lt;/b&gt;" style="shape=parallelogram;perimeter=parallelogramPerimeter;whiteSpace=wrap;html=1;fixedSize=1;" vertex="1" parent="1">
          <mxGeometry x="1610" y="380" width="120" height="60" as="geometry" />
        </mxCell>
        <mxCell id="13j3pOSbm1yzFYjL6CGB-189" value="" style="shape=flexArrow;endArrow=classic;html=1;rounded=0;entryX=1;entryY=0;entryDx=0;entryDy=0;" edge="1" parent="1" target="13j3pOSbm1yzFYjL6CGB-149">
          <mxGeometry width="50" height="50" relative="1" as="geometry">
            <mxPoint x="1640" y="443" as="sourcePoint" />
            <mxPoint x="1530" y="540" as="targetPoint" />
          </mxGeometry>
        </mxCell>
        <mxCell id="13j3pOSbm1yzFYjL6CGB-190" value="&lt;b&gt;&lt;font style=&quot;font-size: 18px;&quot;&gt;推理&lt;/font&gt;&lt;/b&gt;" style="text;html=1;align=center;verticalAlign=middle;resizable=0;points=[];autosize=1;strokeColor=none;fillColor=none;" vertex="1" parent="1">
          <mxGeometry x="1540" y="440" width="60" height="40" as="geometry" />
        </mxCell>
        <mxCell id="13j3pOSbm1yzFYjL6CGB-192" value="" style="shape=flexArrow;endArrow=classic;html=1;rounded=0;" edge="1" parent="1">
          <mxGeometry width="50" height="50" relative="1" as="geometry">
            <mxPoint x="1680" y="443" as="sourcePoint" />
            <mxPoint x="1750" y="550" as="targetPoint" />
          </mxGeometry>
        </mxCell>
        <mxCell id="13j3pOSbm1yzFYjL6CGB-193" value="&lt;b style=&quot;font-size: 18px;&quot;&gt;&lt;font style=&quot;font-size: 18px;&quot;&gt;训练&lt;/font&gt;&lt;/b&gt;" style="text;html=1;align=center;verticalAlign=middle;resizable=0;points=[];autosize=1;strokeColor=none;fillColor=none;fontSize=18;" vertex="1" parent="1">
          <mxGeometry x="1720" y="458" width="60" height="40" as="geometry" />
        </mxCell>
        <mxCell id="13j3pOSbm1yzFYjL6CGB-196" style="edgeStyle=orthogonalEdgeStyle;rounded=0;orthogonalLoop=1;jettySize=auto;html=1;entryX=1;entryY=0.5;entryDx=0;entryDy=0;" edge="1" parent="1" source="13j3pOSbm1yzFYjL6CGB-195" target="13j3pOSbm1yzFYjL6CGB-149">
          <mxGeometry relative="1" as="geometry" />
        </mxCell>
        <mxCell id="13j3pOSbm1yzFYjL6CGB-195" value="&lt;p style=&quot;margin: 4px 0px 0px; text-align: center; font-size: 17px;&quot;&gt;&lt;b&gt;Csv2lable&lt;/b&gt;&lt;/p&gt;&lt;hr style=&quot;font-size: 17px;&quot; size=&quot;1&quot;&gt;&lt;div style=&quot;height: 2px; font-size: 17px;&quot;&gt;根据场景模拟追加lable：status&lt;/div&gt;" style="verticalAlign=top;align=left;overflow=fill;fontSize=12;fontFamily=Helvetica;html=1;whiteSpace=wrap;" vertex="1" parent="1">
          <mxGeometry x="1650" y="550" width="215" height="90" as="geometry" />
        </mxCell>
        <mxCell id="13j3pOSbm1yzFYjL6CGB-197" style="edgeStyle=orthogonalEdgeStyle;rounded=0;orthogonalLoop=1;jettySize=auto;html=1;entryX=0;entryY=0.545;entryDx=0;entryDy=0;entryPerimeter=0;" edge="1" parent="1" source="13j3pOSbm1yzFYjL6CGB-156" target="13j3pOSbm1yzFYjL6CGB-128">
          <mxGeometry relative="1" as="geometry">
            <Array as="points">
              <mxPoint x="1415" y="810" />
              <mxPoint x="1260" y="810" />
              <mxPoint x="1260" y="1200" />
              <mxPoint x="565" y="1200" />
              <mxPoint x="565" y="759" />
            </Array>
          </mxGeometry>
        </mxCell>
        <mxCell id="13j3pOSbm1yzFYjL6CGB-199" value="" style="curved=1;endArrow=classic;html=1;rounded=0;" edge="1" parent="1" source="13j3pOSbm1yzFYjL6CGB-175">
          <mxGeometry width="50" height="50" relative="1" as="geometry">
            <mxPoint x="1120" y="1330" as="sourcePoint" />
            <mxPoint x="1260" y="1320" as="targetPoint" />
            <Array as="points">
              <mxPoint x="1160" y="1320" />
              <mxPoint x="1190" y="1220" />
              <mxPoint x="1120" y="1280" />
            </Array>
          </mxGeometry>
        </mxCell>
      </root>
    </mxGraphModel>
  </diagram>
</mxfile>
